<mxfile host="app.diagrams.net" modified="2024-04-24T07:25:24.544Z" agent="Mozilla/5.0 (Macintosh; Intel Mac OS X 10_15_7) AppleWebKit/537.36 (KHTML, like Gecko) Chrome/123.0.0.0 Safari/537.36 Edg/123.0.0.0" etag="PWzfmjeZCJJpoJ-CrHJR" version="24.2.2" type="github">
  <diagram name="第 1 页" id="LlDZJBcikCnKS_ieD5xa">
    <mxGraphModel dx="676" dy="457" grid="1" gridSize="10" guides="1" tooltips="1" connect="1" arrows="1" fold="1" page="1" pageScale="1" pageWidth="1169" pageHeight="1654" math="0" shadow="0">
      <root>
        <mxCell id="0" />
        <mxCell id="1" parent="0" />
        <mxCell id="34X_elYX6h45MBW99sLK-50" style="rounded=0;orthogonalLoop=1;jettySize=auto;html=1;exitX=0.075;exitY=0.734;exitDx=0;exitDy=0;exitPerimeter=0;" edge="1" parent="1" source="34X_elYX6h45MBW99sLK-52" target="34X_elYX6h45MBW99sLK-55">
          <mxGeometry relative="1" as="geometry" />
        </mxCell>
        <mxCell id="34X_elYX6h45MBW99sLK-51" style="rounded=0;orthogonalLoop=1;jettySize=auto;html=1;exitX=0.776;exitY=0.934;exitDx=0;exitDy=0;exitPerimeter=0;" edge="1" parent="1" source="34X_elYX6h45MBW99sLK-52">
          <mxGeometry relative="1" as="geometry">
            <mxPoint x="391" y="96" as="targetPoint" />
          </mxGeometry>
        </mxCell>
        <mxCell id="34X_elYX6h45MBW99sLK-100" style="rounded=0;orthogonalLoop=1;jettySize=auto;html=1;exitX=0.305;exitY=0.964;exitDx=0;exitDy=0;entryX=0.5;entryY=0;entryDx=0;entryDy=0;exitPerimeter=0;" edge="1" parent="1" source="34X_elYX6h45MBW99sLK-52">
          <mxGeometry relative="1" as="geometry">
            <mxPoint x="351" y="95" as="targetPoint" />
          </mxGeometry>
        </mxCell>
        <mxCell id="34X_elYX6h45MBW99sLK-116" style="rounded=0;orthogonalLoop=1;jettySize=auto;html=1;entryX=0.25;entryY=0;entryDx=0;entryDy=0;" edge="1" parent="1" source="34X_elYX6h45MBW99sLK-52">
          <mxGeometry relative="1" as="geometry">
            <mxPoint x="425" y="95" as="targetPoint" />
          </mxGeometry>
        </mxCell>
        <mxCell id="34X_elYX6h45MBW99sLK-52" value="start" style="ellipse;whiteSpace=wrap;html=1;aspect=fixed;" vertex="1" parent="1">
          <mxGeometry x="351" y="40" width="30" height="30" as="geometry" />
        </mxCell>
        <mxCell id="34X_elYX6h45MBW99sLK-53" value="end" style="ellipse;whiteSpace=wrap;html=1;aspect=fixed;" vertex="1" parent="1">
          <mxGeometry x="351" y="249" width="30" height="30" as="geometry" />
        </mxCell>
        <mxCell id="34X_elYX6h45MBW99sLK-85" style="edgeStyle=orthogonalEdgeStyle;rounded=0;orthogonalLoop=1;jettySize=auto;html=1;exitX=0.5;exitY=1;exitDx=0;exitDy=0;entryX=0.5;entryY=0;entryDx=0;entryDy=0;" edge="1" parent="1" source="34X_elYX6h45MBW99sLK-55">
          <mxGeometry relative="1" as="geometry">
            <mxPoint x="300" y="126" as="targetPoint" />
          </mxGeometry>
        </mxCell>
        <mxCell id="34X_elYX6h45MBW99sLK-55" value="&lt;span style=&quot;font-size: 10px;&quot;&gt;F&lt;/span&gt;&lt;span style=&quot;font-size: 8.33333px;&quot;&gt;(1)&lt;/span&gt;" style="rounded=0;whiteSpace=wrap;html=1;verticalAlign=bottom;" vertex="1" parent="1">
          <mxGeometry x="280" y="95" width="40" height="15" as="geometry" />
        </mxCell>
        <mxCell id="34X_elYX6h45MBW99sLK-68" style="rounded=0;orthogonalLoop=1;jettySize=auto;html=1;" edge="1" parent="1">
          <mxGeometry relative="1" as="geometry">
            <mxPoint x="350" y="230" as="sourcePoint" />
            <mxPoint x="360" y="250" as="targetPoint" />
          </mxGeometry>
        </mxCell>
        <mxCell id="34X_elYX6h45MBW99sLK-69" value="" style="group" vertex="1" connectable="0" parent="1">
          <mxGeometry x="40" y="60" width="210" height="190" as="geometry" />
        </mxCell>
        <mxCell id="34X_elYX6h45MBW99sLK-70" value="objA" style="shape=umlLifeline;perimeter=lifelinePerimeter;whiteSpace=wrap;html=1;container=1;dropTarget=0;collapsible=0;recursiveResize=0;outlineConnect=0;portConstraint=eastwest;newEdgeStyle={&quot;curved&quot;:0,&quot;rounded&quot;:0};size=21;" vertex="1" parent="34X_elYX6h45MBW99sLK-69">
          <mxGeometry x="32" y="29.30952380952381" width="55" height="150.91428571428574" as="geometry" />
        </mxCell>
        <mxCell id="34X_elYX6h45MBW99sLK-71" value="&lt;font style=&quot;font-size: 9px;&quot;&gt;loop(l,u)&lt;/font&gt;" style="shape=umlFrame;whiteSpace=wrap;html=1;pointerEvents=0;width=45;height=19;fillColor=default;align=left;" vertex="1" parent="34X_elYX6h45MBW99sLK-69">
          <mxGeometry x="5" y="71" width="193.38" height="70.95" as="geometry" />
        </mxCell>
        <mxCell id="34X_elYX6h45MBW99sLK-72" value="example" style="shape=umlFrame;whiteSpace=wrap;html=1;pointerEvents=0;width=60;height=22;" vertex="1" parent="34X_elYX6h45MBW99sLK-69">
          <mxGeometry width="210.00000000000003" height="190" as="geometry" />
        </mxCell>
        <mxCell id="34X_elYX6h45MBW99sLK-73" value="F" style="text;html=1;align=center;verticalAlign=middle;resizable=0;points=[];autosize=1;strokeColor=none;fillColor=none;" vertex="1" parent="34X_elYX6h45MBW99sLK-69">
          <mxGeometry x="92.50000000000001" y="91.54175982541742" width="25" height="26" as="geometry" />
        </mxCell>
        <mxCell id="34X_elYX6h45MBW99sLK-76" value="objB" style="shape=umlLifeline;perimeter=lifelinePerimeter;whiteSpace=wrap;html=1;container=1;dropTarget=0;collapsible=0;recursiveResize=0;outlineConnect=0;portConstraint=eastwest;newEdgeStyle={&quot;curved&quot;:0,&quot;rounded&quot;:0};size=21;aspect=fixed;" vertex="1" parent="34X_elYX6h45MBW99sLK-69">
          <mxGeometry x="121" y="30.309523809523817" width="55" height="146.26" as="geometry" />
        </mxCell>
        <mxCell id="34X_elYX6h45MBW99sLK-88" style="edgeStyle=orthogonalEdgeStyle;rounded=0;orthogonalLoop=1;jettySize=auto;html=1;exitX=0.5;exitY=1;exitDx=0;exitDy=0;" edge="1" parent="1">
          <mxGeometry relative="1" as="geometry">
            <mxPoint x="299.5" y="191" as="targetPoint" />
            <mxPoint x="299.5" y="176" as="sourcePoint" />
          </mxGeometry>
        </mxCell>
        <mxCell id="34X_elYX6h45MBW99sLK-90" value="" style="rounded=0;orthogonalLoop=1;jettySize=auto;html=1;exitX=0.5;exitY=1;exitDx=0;exitDy=0;" edge="1" parent="1">
          <mxGeometry relative="1" as="geometry">
            <mxPoint x="300" y="157" as="targetPoint" />
            <mxPoint x="300" y="142" as="sourcePoint" />
          </mxGeometry>
        </mxCell>
        <mxCell id="34X_elYX6h45MBW99sLK-121" style="rounded=0;orthogonalLoop=1;jettySize=auto;html=1;entryX=0.037;entryY=0.274;entryDx=0;entryDy=0;entryPerimeter=0;exitX=0.5;exitY=1;exitDx=0;exitDy=0;" edge="1" parent="1" source="34X_elYX6h45MBW99sLK-182" target="34X_elYX6h45MBW99sLK-53">
          <mxGeometry relative="1" as="geometry">
            <mxPoint x="309.0427230984228" y="214.5" as="sourcePoint" />
          </mxGeometry>
        </mxCell>
        <mxCell id="34X_elYX6h45MBW99sLK-93" style="edgeStyle=orthogonalEdgeStyle;rounded=0;orthogonalLoop=1;jettySize=auto;html=1;exitX=0.5;exitY=1;exitDx=0;exitDy=0;entryX=0.5;entryY=0;entryDx=0;entryDy=0;" edge="1" parent="1">
          <mxGeometry relative="1" as="geometry">
            <mxPoint x="351" y="111" as="sourcePoint" />
            <mxPoint x="351" y="126" as="targetPoint" />
          </mxGeometry>
        </mxCell>
        <mxCell id="34X_elYX6h45MBW99sLK-96" style="edgeStyle=orthogonalEdgeStyle;rounded=0;orthogonalLoop=1;jettySize=auto;html=1;exitX=0.5;exitY=1;exitDx=0;exitDy=0;" edge="1" parent="1">
          <mxGeometry relative="1" as="geometry">
            <mxPoint x="350.5" y="156" as="targetPoint" />
            <mxPoint x="350.5" y="141" as="sourcePoint" />
          </mxGeometry>
        </mxCell>
        <mxCell id="34X_elYX6h45MBW99sLK-101" style="edgeStyle=orthogonalEdgeStyle;rounded=0;orthogonalLoop=1;jettySize=auto;html=1;exitX=0.5;exitY=1;exitDx=0;exitDy=0;" edge="1" parent="1">
          <mxGeometry relative="1" as="geometry">
            <mxPoint x="351.5" y="215" as="targetPoint" />
            <mxPoint x="351.5" y="199" as="sourcePoint" />
          </mxGeometry>
        </mxCell>
        <mxCell id="34X_elYX6h45MBW99sLK-103" value="..." style="text;html=1;align=center;verticalAlign=middle;resizable=0;points=[];autosize=1;strokeColor=none;fillColor=none;" vertex="1" parent="1">
          <mxGeometry x="379" y="102" width="28" height="26" as="geometry" />
        </mxCell>
        <mxCell id="34X_elYX6h45MBW99sLK-118" value="..." style="text;html=1;align=center;verticalAlign=middle;resizable=0;points=[];autosize=1;strokeColor=none;fillColor=none;" vertex="1" parent="1">
          <mxGeometry x="379" y="140" width="28" height="26" as="geometry" />
        </mxCell>
        <mxCell id="34X_elYX6h45MBW99sLK-119" value="..." style="text;html=1;align=center;verticalAlign=middle;resizable=0;points=[];autosize=1;strokeColor=none;fillColor=none;" vertex="1" parent="1">
          <mxGeometry x="379" y="178" width="28" height="26" as="geometry" />
        </mxCell>
        <mxCell id="34X_elYX6h45MBW99sLK-122" style="rounded=0;orthogonalLoop=1;jettySize=auto;html=1;entryX=0.956;entryY=0.259;entryDx=0;entryDy=0;exitX=0.388;exitY=1.041;exitDx=0;exitDy=0;exitPerimeter=0;entryPerimeter=0;" edge="1" parent="1" source="34X_elYX6h45MBW99sLK-196" target="34X_elYX6h45MBW99sLK-53">
          <mxGeometry relative="1" as="geometry">
            <mxPoint x="416" y="238.1741898479322" as="sourcePoint" />
          </mxGeometry>
        </mxCell>
        <mxCell id="34X_elYX6h45MBW99sLK-123" value="..." style="text;html=1;align=center;verticalAlign=middle;resizable=0;points=[];autosize=1;strokeColor=none;fillColor=none;" vertex="1" parent="1">
          <mxGeometry x="285" y="148" width="28" height="26" as="geometry" />
        </mxCell>
        <mxCell id="34X_elYX6h45MBW99sLK-128" style="rounded=0;orthogonalLoop=1;jettySize=auto;html=1;entryX=0.689;entryY=0.03;entryDx=0;entryDy=0;entryPerimeter=0;" edge="1" parent="1" target="34X_elYX6h45MBW99sLK-53">
          <mxGeometry relative="1" as="geometry">
            <mxPoint x="390" y="210" as="sourcePoint" />
            <mxPoint x="372" y="250.5" as="targetPoint" />
          </mxGeometry>
        </mxCell>
        <mxCell id="34X_elYX6h45MBW99sLK-177" value="..." style="text;html=1;align=center;verticalAlign=middle;resizable=0;points=[];autosize=1;strokeColor=none;fillColor=none;" vertex="1" parent="1">
          <mxGeometry x="336" y="146" width="28" height="26" as="geometry" />
        </mxCell>
        <mxCell id="34X_elYX6h45MBW99sLK-180" value="&lt;span style=&quot;font-size: 10px;&quot;&gt;F&lt;/span&gt;&lt;span style=&quot;font-size: 8.33333px;&quot;&gt;(1)&lt;/span&gt;" style="rounded=0;whiteSpace=wrap;html=1;verticalAlign=bottom;" vertex="1" parent="1">
          <mxGeometry x="330" y="95" width="40" height="15" as="geometry" />
        </mxCell>
        <mxCell id="34X_elYX6h45MBW99sLK-181" value="&lt;span style=&quot;font-size: 10px;&quot;&gt;F&lt;/span&gt;&lt;span style=&quot;font-size: 8.33333px;&quot;&gt;(2)&lt;/span&gt;" style="rounded=0;whiteSpace=wrap;html=1;verticalAlign=bottom;" vertex="1" parent="1">
          <mxGeometry x="280" y="125.5" width="40" height="15" as="geometry" />
        </mxCell>
        <mxCell id="34X_elYX6h45MBW99sLK-182" value="&lt;span style=&quot;font-size: 10px;&quot;&gt;F&lt;/span&gt;&lt;span style=&quot;font-size: 8.33333px;&quot;&gt;(l)&lt;/span&gt;" style="rounded=0;whiteSpace=wrap;html=1;verticalAlign=bottom;" vertex="1" parent="1">
          <mxGeometry x="280" y="192" width="40" height="15" as="geometry" />
        </mxCell>
        <mxCell id="34X_elYX6h45MBW99sLK-183" value="&lt;span style=&quot;font-size: 10px;&quot;&gt;F&lt;/span&gt;&lt;span style=&quot;font-size: 8.33333px;&quot;&gt;(2)&lt;/span&gt;" style="rounded=0;whiteSpace=wrap;html=1;verticalAlign=bottom;" vertex="1" parent="1">
          <mxGeometry x="331" y="125.5" width="40" height="15" as="geometry" />
        </mxCell>
        <mxCell id="34X_elYX6h45MBW99sLK-184" value="&lt;span style=&quot;font-size: 10px;&quot;&gt;F&lt;/span&gt;&lt;span style=&quot;font-size: 8.33333px;&quot;&gt;(l)&lt;/span&gt;" style="rounded=0;whiteSpace=wrap;html=1;verticalAlign=bottom;" vertex="1" parent="1">
          <mxGeometry x="331" y="185" width="40" height="15" as="geometry" />
        </mxCell>
        <mxCell id="34X_elYX6h45MBW99sLK-185" value="&lt;span style=&quot;font-size: 10px;&quot;&gt;F&lt;/span&gt;&lt;span style=&quot;font-size: 8.33333px;&quot;&gt;(l+1)&lt;/span&gt;" style="rounded=0;whiteSpace=wrap;html=1;verticalAlign=bottom;" vertex="1" parent="1">
          <mxGeometry x="331" y="215.5" width="40" height="15" as="geometry" />
        </mxCell>
        <mxCell id="34X_elYX6h45MBW99sLK-186" style="edgeStyle=orthogonalEdgeStyle;rounded=0;orthogonalLoop=1;jettySize=auto;html=1;exitX=0.5;exitY=1;exitDx=0;exitDy=0;" edge="1" parent="1">
          <mxGeometry relative="1" as="geometry">
            <mxPoint x="350.5" y="184" as="targetPoint" />
            <mxPoint x="350.5" y="169" as="sourcePoint" />
          </mxGeometry>
        </mxCell>
        <mxCell id="34X_elYX6h45MBW99sLK-187" value="&lt;span style=&quot;font-size: 10px;&quot;&gt;F&lt;/span&gt;&lt;span style=&quot;font-size: 8.33333px;&quot;&gt;(1)&lt;/span&gt;" style="rounded=0;whiteSpace=wrap;html=1;verticalAlign=bottom;" vertex="1" parent="1">
          <mxGeometry x="409" y="95" width="40" height="15" as="geometry" />
        </mxCell>
        <mxCell id="34X_elYX6h45MBW99sLK-190" style="edgeStyle=orthogonalEdgeStyle;rounded=0;orthogonalLoop=1;jettySize=auto;html=1;exitX=0.5;exitY=1;exitDx=0;exitDy=0;entryX=0.5;entryY=0;entryDx=0;entryDy=0;" edge="1" parent="1">
          <mxGeometry relative="1" as="geometry">
            <mxPoint x="429" y="111" as="sourcePoint" />
            <mxPoint x="429" y="126" as="targetPoint" />
          </mxGeometry>
        </mxCell>
        <mxCell id="34X_elYX6h45MBW99sLK-192" style="edgeStyle=orthogonalEdgeStyle;rounded=0;orthogonalLoop=1;jettySize=auto;html=1;exitX=0.5;exitY=1;exitDx=0;exitDy=0;" edge="1" parent="1">
          <mxGeometry relative="1" as="geometry">
            <mxPoint x="428.5" y="188.5" as="targetPoint" />
            <mxPoint x="428.5" y="172.5" as="sourcePoint" />
          </mxGeometry>
        </mxCell>
        <mxCell id="34X_elYX6h45MBW99sLK-195" value="&lt;span style=&quot;font-size: 10px;&quot;&gt;F&lt;/span&gt;&lt;span style=&quot;font-size: 8.33333px;&quot;&gt;(l)&lt;/span&gt;" style="rounded=0;whiteSpace=wrap;html=1;verticalAlign=bottom;" vertex="1" parent="1">
          <mxGeometry x="409" y="158.5" width="40" height="15" as="geometry" />
        </mxCell>
        <mxCell id="34X_elYX6h45MBW99sLK-196" value="&lt;span style=&quot;font-size: 10px;&quot;&gt;F&lt;/span&gt;&lt;span style=&quot;font-size: 8.33333px;&quot;&gt;(l+u)&lt;/span&gt;" style="rounded=0;whiteSpace=wrap;html=1;verticalAlign=bottom;" vertex="1" parent="1">
          <mxGeometry x="409" y="218" width="40" height="15" as="geometry" />
        </mxCell>
        <mxCell id="34X_elYX6h45MBW99sLK-197" style="edgeStyle=orthogonalEdgeStyle;rounded=0;orthogonalLoop=1;jettySize=auto;html=1;exitX=0.5;exitY=1;exitDx=0;exitDy=0;" edge="1" parent="1">
          <mxGeometry relative="1" as="geometry">
            <mxPoint x="428.5" y="157.5" as="targetPoint" />
            <mxPoint x="428.5" y="142.5" as="sourcePoint" />
          </mxGeometry>
        </mxCell>
        <mxCell id="34X_elYX6h45MBW99sLK-198" value="..." style="text;html=1;align=center;verticalAlign=middle;resizable=0;points=[];autosize=1;strokeColor=none;fillColor=none;" vertex="1" parent="1">
          <mxGeometry x="414" y="117" width="28" height="26" as="geometry" />
        </mxCell>
        <mxCell id="34X_elYX6h45MBW99sLK-201" style="edgeStyle=orthogonalEdgeStyle;rounded=0;orthogonalLoop=1;jettySize=auto;html=1;exitX=0.5;exitY=1;exitDx=0;exitDy=0;" edge="1" parent="1">
          <mxGeometry relative="1" as="geometry">
            <mxPoint x="427.74" y="219" as="targetPoint" />
            <mxPoint x="427.74" y="204" as="sourcePoint" />
          </mxGeometry>
        </mxCell>
        <mxCell id="34X_elYX6h45MBW99sLK-202" value="..." style="text;html=1;align=center;verticalAlign=middle;resizable=0;points=[];autosize=1;strokeColor=none;fillColor=none;" vertex="1" parent="1">
          <mxGeometry x="414" y="179" width="28" height="26" as="geometry" />
        </mxCell>
      </root>
    </mxGraphModel>
  </diagram>
</mxfile>
